<svg id="c7ebada2-7762-48e1-9a90-4e159c883573" data-name="Layer 1" xmlns="http://www.w3.org/2000/svg" width="1.45in" height="1.47in" viewBox="0 0 104.72 105.8"><defs><style>.e1f292c3-8cd7-4748-b3ee-fbe6f2d990bb{fill:#532d6d;}.\39 13d5826-5513-45d7-8b7a-b9b851b763b6{fill:#d6bedc;}.eba87a1d-16b6-4a2a-adad-a4387d656ec4{fill:#fff;}</style></defs><title>derm tested</title><path class="e1f292c3-8cd7-4748-b3ee-fbe6f2d990bb" d="M590.39,204a47.68,47.68,0,0,1,77.41-55l3.46-2.46a51.9,51.9,0,0,0-84.34,59.92Z" transform="translate(-579.7 -128.1)"/><path class="e1f292c3-8cd7-4748-b3ee-fbe6f2d990bb" d="M596.13,207.73l1.78,2.1a3.94,3.94,0,0,1-.29,5.75h0a4,4,0,0,1-5.74-.65l-1.77-2.1Zm-3.63,6.68a3.06,3.06,0,0,0,4.49.49h0a3.08,3.08,0,0,0,.27-4.53l-1.2-1.41-4.78,4Z" transform="translate(-579.7 -128.1)"/><path class="e1f292c3-8cd7-4748-b3ee-fbe6f2d990bb" d="M601.68,214l4.4,3.65-0.52.63-3.71-3.08-1.73,2.08,3.32,2.76-0.52.63-3.32-2.76L597.83,220l3.75,3.12-0.52.63L596.63,220Z" transform="translate(-579.7 -128.1)"/><path class="e1f292c3-8cd7-4748-b3ee-fbe6f2d990bb" d="M607.21,218.4l2.94,1.71a3.12,3.12,0,0,1,1.54,1.82,2.19,2.19,0,0,1-.26,1.65v0a2.32,2.32,0,0,1-3,.91l0.47,4-0.95-.55-0.43-3.81h0L605.55,223,604,225.69l-0.77-.45Zm0.84,5.16c1,0.6,2.07.5,2.58-.38v0c0.49-.84.14-1.72-1-2.37l-2.11-1.23L606,222.34Z" transform="translate(-579.7 -128.1)"/><path class="e1f292c3-8cd7-4748-b3ee-fbe6f2d990bb" d="M613.85,222.17l0.85,0.3,1.29,5,4.15-3.12,0.85,0.3-2.63,7.46-0.84-.29,2.13-6-4.13,3,0,0-1.32-4.95-2.12,6-0.82-.29Z" transform="translate(-579.7 -128.1)"/><path class="e1f292c3-8cd7-4748-b3ee-fbe6f2d990bb" d="M625.53,225.39l0.83,0.12,2.46,8.39-1-.13-0.62-2.2L623,231l-1.22,1.94-0.91-.13Zm1.47,5.33-1.22-4.24-2.35,3.74Z" transform="translate(-579.7 -128.1)"/><path class="e1f292c3-8cd7-4748-b3ee-fbe6f2d990bb" d="M632.14,226.76l-2.66,0V226l6.22-.07v0.83l-2.65,0,0.08,7.09h-0.91Z" transform="translate(-579.7 -128.1)"/><path class="e1f292c3-8cd7-4748-b3ee-fbe6f2d990bb" d="M636.72,229.86v0a4,4,0,1,1,7.94-1.47s0,0,0,0A4,4,0,1,1,636.72,229.86Zm7-1.28v0a3.14,3.14,0,0,0-3.65-2.66,3.11,3.11,0,0,0-2.47,3.75v0a3.15,3.15,0,0,0,3.65,2.66A3.11,3.11,0,0,0,643.75,228.58Z" transform="translate(-579.7 -128.1)"/><path class="e1f292c3-8cd7-4748-b3ee-fbe6f2d990bb" d="M645.24,224l0.84-.31,2.46,6.64,4.17-1.54,0.29,0.77-5,1.85Z" transform="translate(-579.7 -128.1)"/><path class="e1f292c3-8cd7-4748-b3ee-fbe6f2d990bb" d="M652.6,225.52v0a4,4,0,1,1,7-4s0,0,0,0A4,4,0,1,1,652.6,225.52Zm6.2-3.55v0a3.15,3.15,0,0,0-4.33-1.29,3.11,3.11,0,0,0-1.08,4.35v0a3.15,3.15,0,0,0,4.33,1.29A3.11,3.11,0,0,0,658.8,222Z" transform="translate(-579.7 -128.1)"/><path class="e1f292c3-8cd7-4748-b3ee-fbe6f2d990bb" d="M661,220.46v0a4,4,0,0,1,.31-5.69,4.16,4.16,0,0,1,2.92-1.14v0.89a3.37,3.37,0,0,0-2.41.9,3.09,3.09,0,0,0-.14,4.42v0a3.06,3.06,0,0,0,4.52.42,3.72,3.72,0,0,0,1.2-2.1l-1.29-1.49-1.81,1.58-0.53-.61,2.46-2.15,2.07,2.38a4.81,4.81,0,0,1-1.6,3A3.88,3.88,0,0,1,661,220.46Z" transform="translate(-579.7 -128.1)"/><path class="e1f292c3-8cd7-4748-b3ee-fbe6f2d990bb" d="M664.93,211.37l0.59-.67,5.92,5.25-0.59.67Z" transform="translate(-579.7 -128.1)"/><path class="e1f292c3-8cd7-4748-b3ee-fbe6f2d990bb" d="M672.07,213.55l-0.22-.83a3.78,3.78,0,0,0,2.48-1.57,1.52,1.52,0,0,0-.08-2.22h0c-0.6-.42-1.17-0.34-2.42.81s-2.34,1.6-3.4.85h0a2.34,2.34,0,0,1-.26-3.37,4.12,4.12,0,0,1,2.4-1.71l0.26,0.82a3.47,3.47,0,0,0-2,1.37,1.46,1.46,0,0,0,.07,2.11h0c0.61,0.43,1.19.34,2.5-.87s2.33-1.51,3.32-.82h0c1.11,0.78,1.18,2.21.27,3.5A4.62,4.62,0,0,1,672.07,213.55Z" transform="translate(-579.7 -128.1)"/><path class="e1f292c3-8cd7-4748-b3ee-fbe6f2d990bb" d="M672.24,202.24l-1.19,2.37-0.74-.37,2.78-5.56,0.74,0.37-1.19,2.37,6.33,3.17-0.41.81Z" transform="translate(-579.7 -128.1)"/><path class="e1f292c3-8cd7-4748-b3ee-fbe6f2d990bb" d="M675.86,192.68l-0.63,2.58-0.8-.2,1.47-6,0.8,0.19-0.62,2.58,6.88,1.67-0.21.88Z" transform="translate(-579.7 -128.1)"/><path class="e1f292c3-8cd7-4748-b3ee-fbe6f2d990bb" d="M676.06,187.81l0.46-5.7,0.81,0.07L676.94,187l2.69,0.22,0.35-4.31L680.8,183l-0.35,4.3,2.76,0.22,0.39-4.87,0.81,0.06-0.46,5.76Z" transform="translate(-579.7 -128.1)"/><path class="e1f292c3-8cd7-4748-b3ee-fbe6f2d990bb" d="M683.26,180.72l-0.7-.5a3.76,3.76,0,0,0,.91-2.79,1.52,1.52,0,0,0-1.47-1.65h0c-0.73.06-1.12,0.48-1.34,2.17-0.26,1.84-.78,2.72-2.07,2.82h0a2.34,2.34,0,0,1-2.35-2.42,4.13,4.13,0,0,1,.75-2.85l0.73,0.46a3.49,3.49,0,0,0-.68,2.34,1.46,1.46,0,0,0,1.4,1.58h0c0.74-.06,1.13-0.5,1.37-2.26s0.83-2.65,2-2.74h0c1.35-.1,2.32,1,2.44,2.52A4.63,4.63,0,0,1,683.26,180.72Z" transform="translate(-579.7 -128.1)"/><path class="e1f292c3-8cd7-4748-b3ee-fbe6f2d990bb" d="M676.18,171.88l0.6,2.59-0.8.19-1.4-6.05,0.8-.19L676,171l6.9-1.6,0.21,0.88Z" transform="translate(-579.7 -128.1)"/><path class="e1f292c3-8cd7-4748-b3ee-fbe6f2d990bb" d="M674.18,167.47l-2.14-5.3,0.76-.3,1.8,4.48,2.51-1-1.61-4,0.75-.3,1.62,4,2.57-1-1.82-4.53,0.75-.3,2.16,5.36Z" transform="translate(-579.7 -128.1)"/><path class="e1f292c3-8cd7-4748-b3ee-fbe6f2d990bb" d="M671.44,160.93L670,158.6A3.94,3.94,0,0,1,671.1,153h0a4,4,0,0,1,5.58,1.48l1.45,2.33Zm4.56-6.08a3.06,3.06,0,0,0-4.37-1.14h0a3.08,3.08,0,0,0-.92,4.44l1,1.57,5.32-3.31Z" transform="translate(-579.7 -128.1)"/><path class="913d5826-5513-45d7-8b7a-b9b851b763b6" d="M630,208.42a119,119,0,0,0,12.53-.57v3.66a0.71,0.71,0,0,1-.7.71H621.35a0.71,0.71,0,0,1-.7-0.71V208c0.29,0,.56.12,0.86,0.15C622.88,208.29,626.14,208.42,630,208.42Z" transform="translate(-579.7 -128.1)"/><path class="913d5826-5513-45d7-8b7a-b9b851b763b6" d="M606.18,183.95a7.39,7.39,0,0,1-1.05-.1c0,0.47.09,0.94,0.15,1.41a33.28,33.28,0,0,0,4.28,12.95c2.46,4,5.76,6.84,9.67,8,0.23,0.07.47,0.15,0.71,0.21s0.48,0.08.71,0.12,0.67,0.14,1,.17c1.27,0.13,4.54.27,8.35,0.27a116,116,0,0,0,12.53-.58l0.2,0,0.51-.23,0.7-.32c6.23-2.86,9.73-6.18,11.73-10.5a29.61,29.61,0,0,0,2.32-10c0-.46.07-0.94,0.09-1.41a7.27,7.27,0,0,1-1.09.1H606.18Z" transform="translate(-579.7 -128.1)"/><path class="913d5826-5513-45d7-8b7a-b9b851b763b6" d="M603.36,174.07a5.37,5.37,0,0,1,2.82-.78H657a5.4,5.4,0,0,1,2.44.59,4.17,4.17,0,0,1,.24,7.59l-0.24.12a5,5,0,0,1-.51.24,5.18,5.18,0,0,1-.75.21,5.72,5.72,0,0,1-1.18.14H606.18a6.44,6.44,0,0,1-1.94-.35,5.56,5.56,0,0,1-.76-0.37l-0.12-.07A4.17,4.17,0,0,1,603.36,174.07Z" transform="translate(-579.7 -128.1)"/><circle class="913d5826-5513-45d7-8b7a-b9b851b763b6" cx="607.6" cy="157.61" r="6.02" transform="translate(-513.2 347.67) rotate(-45)"/><polygon class="913d5826-5513-45d7-8b7a-b9b851b763b6" points="37.43 43.45 46.26 43.44 31.07 28.26 26.65 32.67 37.43 43.45"/><rect class="eba87a1d-16b6-4a2a-adad-a4387d656ec4" x="43.73" y="65.3" width="16.32" height="4"/><rect class="eba87a1d-16b6-4a2a-adad-a4387d656ec4" x="49.89" y="59.14" width="4" height="16.32"/></svg>