<svg id="e4dfb4ba-9a48-43df-972b-7bd658dd32d0" data-name="Layer 1" xmlns="http://www.w3.org/2000/svg" width="1.42in" height="1.44in" viewBox="0 0 102.55 104.03"><defs><style>.aff0aa6f-82b3-428a-84fd-48d909dbc85a{fill:#6c7a34;}.\30 e37fa10-def7-4a02-8f8f-fb426fad193d{fill:#8da23b;}</style></defs><title>no soy icon</title><path class="aff0aa6f-82b3-428a-84fd-48d909dbc85a" d="M883.18,188.52a5.67,5.67,0,0,0,2.75,3.19c1.25,0.71,2.55,1.32,3.82,2A9.32,9.32,0,0,1,895,200a9.8,9.8,0,0,1,.24,2.76,5.66,5.66,0,0,0,1.2,3.85c0.37,0.51.71,1,1,1.57s0.21,0.94-.42,1.07a38,38,0,0,1-3.86.75,24.75,24.75,0,0,1-8.31-.34c-3.68-.86-6.43-3.17-8.76-6a24.51,24.51,0,0,0-7-5.87,16.69,16.69,0,0,1-8.47-10.89,21.36,21.36,0,0,0-4.57-9A13.84,13.84,0,0,1,852.82,166c0.55-3.36,1.31-6.68,2-10a5.69,5.69,0,0,1,.39-1.1c0.34-.79.61-0.89,1.26-0.29a7.2,7.2,0,0,0,5.71,1.85c1.52-.1,3.05-0.07,4.58,0a9.27,9.27,0,0,1,7.05,3.42c1.11,1.29,2.17,2.64,3.18,4a8.6,8.6,0,0,0,6.73,3.91,12.18,12.18,0,0,1,9.33,5.2c1.25,1.62,2.64,3.06,4.79,3.37,1.06,0.15,2.15.17,3.22,0.27a27.46,27.46,0,0,1,3.91.46,8.14,8.14,0,0,1,6,5.06,7.62,7.62,0,0,0,3.66,4.11c1.73,1,1.74,1.28.11,2.42a24.74,24.74,0,0,1-11.22,4.71c-2.94.37-5.69-.5-8.37-1.6a15.88,15.88,0,0,1-1.88-.85,16.23,16.23,0,0,0-7.44-2.08C885,188.81,884.14,188.65,883.18,188.52Zm-5,.09a8.71,8.71,0,0,0-6.72-8.19,5.5,5.5,0,0,0-6.91,5.61,8.62,8.62,0,0,0,7.14,8.08A5.39,5.39,0,0,0,878.22,188.62Zm-9.78-17.5-0.25-.08a8.53,8.53,0,0,0-4.47-7.57,5,5,0,0,0-7.26,2.86A8.48,8.48,0,0,0,861,176.66a4.78,4.78,0,0,0,6.17-2A21.13,21.13,0,0,0,868.44,171.12Zm18.15,35.41c4.05,0,6.28-3.36,4.67-7.08a8.14,8.14,0,0,0-8.18-4.66,4.69,4.69,0,0,0-4,6A8,8,0,0,0,886.58,206.53Z" transform="translate(-829.96 -128.98)"/><path class="0e37fa10-def7-4a02-8f8f-fb426fad193d" d="M881.94,129a52.41,52.41,0,0,1,42.6,21.93l1.23,1.73-84.83,60.48-1.24-1.73A52,52,0,0,1,881.94,129Zm37.86,22.7A47.83,47.83,0,0,0,842,207.17Z" transform="translate(-829.96 -128.98)"/><path class="0e37fa10-def7-4a02-8f8f-fb426fad193d" d="M849.76,213.24l3.59,3-0.65.77L850,214.72,848.84,216l2.43,2-0.65.77-2.43-2-1.65,2-0.85-.71Z" transform="translate(-829.96 -128.98)"/><path class="0e37fa10-def7-4a02-8f8f-fb426fad193d" d="M852,219.26v0a3.29,3.29,0,0,1,5.46,3.68h0A3.29,3.29,0,0,1,852,219.26Zm4.49,3v0a2.16,2.16,0,0,0-.52-3.05,2.13,2.13,0,0,0-3,.65v0a2.16,2.16,0,0,0,.52,3.05A2.13,2.13,0,0,0,856.47,222.3Z" transform="translate(-829.96 -128.98)"/><path class="0e37fa10-def7-4a02-8f8f-fb426fad193d" d="M860.06,220.78l2.5,1.27a2.55,2.55,0,0,1,1.34,1.38,1.91,1.91,0,0,1-.15,1.45v0a1.89,1.89,0,0,1-2.2,1l0.44,2.9-1.16-.59-0.39-2.66h0l-1.22-.62-1,2-1-.5Zm1,4a1.12,1.12,0,0,0,1.63-.35v0a1.09,1.09,0,0,0-.69-1.52l-1.44-.73-1,1.89Z" transform="translate(-829.96 -128.98)"/><path class="0e37fa10-def7-4a02-8f8f-fb426fad193d" d="M865.51,223.51l1.12,0.38,0.87,3.43,2.76-2.22,1.12,0.38-2,6-1-.35,1.43-4.29L866.94,229h0L866,225.56l-1.43,4.27-1-.35Z" transform="translate(-829.96 -128.98)"/><path class="0e37fa10-def7-4a02-8f8f-fb426fad193d" d="M871.87,229.3l0.58-3.58,1.09,0.18L873,229.43a1.55,1.55,0,0,0,1.28,2A1.51,1.51,0,0,0,876.1,230l0.58-3.58,1.09,0.18-0.57,3.53a2.51,2.51,0,0,1-3.12,2.36A2.48,2.48,0,0,1,871.87,229.3Z" transform="translate(-829.96 -128.98)"/><path class="0e37fa10-def7-4a02-8f8f-fb426fad193d" d="M878.89,226.63l1.11,0-0.1,5.29,3.31,0.06,0,1-4.42-.08Z" transform="translate(-829.96 -128.98)"/><path class="0e37fa10-def7-4a02-8f8f-fb426fad193d" d="M886.28,226.37l1-.12,3.52,6-1.16.14-0.82-1.43-3,.36-0.46,1.59-1.13.14Zm2,3.63-1.39-2.37-0.77,2.63Z" transform="translate(-829.96 -128.98)"/><path class="0e37fa10-def7-4a02-8f8f-fb426fad193d" d="M891.72,226.53l-1.94.47-0.24-1,5-1.2,0.24,1-1.94.47,1.24,5.12-1.08.26Z" transform="translate(-829.96 -128.98)"/><path class="0e37fa10-def7-4a02-8f8f-fb426fad193d" d="M895.29,224.53l4.39-1.59,0.34,0.93-3.35,1.21,0.56,1.54,3-1.07,0.34,0.93-3,1.07,0.58,1.59,3.39-1.23,0.34,0.93-4.43,1.6Z" transform="translate(-829.96 -128.98)"/><path class="0e37fa10-def7-4a02-8f8f-fb426fad193d" d="M900.6,222.58l2.1-1.06a3.14,3.14,0,0,1,4.4,1.29v0a3.16,3.16,0,0,1-1.57,4.32l-2.1,1.06Zm4.48,3.67a2.06,2.06,0,0,0,1-2.88v0a2.07,2.07,0,0,0-2.92-.93L902,223l1.93,3.83Z" transform="translate(-829.96 -128.98)"/><path class="0e37fa10-def7-4a02-8f8f-fb426fad193d" d="M908.19,218.64l0.9-.79,4.2,2.54-1.91-4.55,0.71-.61,4.25,2.52-1.93-4.51,0.88-.76,2.51,6.23-0.72.63-4.14-2.4,1.8,4.43L914,222Z" transform="translate(-829.96 -128.98)"/><path class="0e37fa10-def7-4a02-8f8f-fb426fad193d" d="M915.61,211.7l0.72-.84,4.8,4.08-0.72.84Z" transform="translate(-829.96 -128.98)"/><path class="0e37fa10-def7-4a02-8f8f-fb426fad193d" d="M918.94,209.13l-1.13,1.64-0.85-.58,2.91-4.21,0.84,0.58-1.14,1.65,4.34,3-0.63.92Z" transform="translate(-829.96 -128.98)"/><path class="0e37fa10-def7-4a02-8f8f-fb426fad193d" d="M920.26,205.31l0.49-1,2.34,1.17,1.34-2.69-2.35-1.17,0.49-1,5.64,2.81-0.49,1-2.38-1.18L924,205.94l2.38,1.18-0.49,1Z" transform="translate(-829.96 -128.98)"/><path class="0e37fa10-def7-4a02-8f8f-fb426fad193d" d="M926,200.77h0a3.29,3.29,0,0,1,2-6.28h0A3.29,3.29,0,0,1,926,200.77Zm1.64-5.17h0a2.16,2.16,0,0,0-2.79,1.36,2.13,2.13,0,0,0,1.48,2.7h0a2.16,2.16,0,0,0,2.78-1.36A2.13,2.13,0,0,0,927.63,195.59Z" transform="translate(-829.96 -128.98)"/><path class="0e37fa10-def7-4a02-8f8f-fb426fad193d" d="M928.69,193.3l-3.58-.6,0.18-1.09,3.53,0.59a1.55,1.55,0,0,0,2-1.28,1.52,1.52,0,0,0-1.47-1.85l-3.58-.6,0.18-1.09,3.52,0.59a2.51,2.51,0,0,1,2.34,3.14A2.48,2.48,0,0,1,928.69,193.3Z" transform="translate(-829.96 -128.98)"/><path class="0e37fa10-def7-4a02-8f8f-fb426fad193d" d="M927.19,184.73l-0.1,2-1,0,0.25-5.1,1,0-0.1,2,5.27,0.25L932.46,185Z" transform="translate(-829.96 -128.98)"/><path class="0e37fa10-def7-4a02-8f8f-fb426fad193d" d="M931.59,178.09l-0.85-.58a2.9,2.9,0,0,0,.62-2.06,0.93,0.93,0,0,0-.9-1h0c-0.45,0-.67.32-0.82,1.51-0.19,1.37-.51,2.16-1.67,2.27h0a1.93,1.93,0,0,1-2-2,3.48,3.48,0,0,1,.56-2.35l0.89,0.51a2.87,2.87,0,0,0-.47,1.76,0.87,0.87,0,0,0,.84.95h0c0.48,0,.67-0.36.84-1.58s0.6-2.09,1.64-2.2h0c1.17-.12,2,0.74,2.09,2.05A3.88,3.88,0,0,1,931.59,178.09Z" transform="translate(-829.96 -128.98)"/><path class="0e37fa10-def7-4a02-8f8f-fb426fad193d" d="M928.79,172.38h0a3.3,3.3,0,0,1-1.42-6.44h0A3.3,3.3,0,0,1,928.79,172.38Zm-1.15-5.31h0a2.16,2.16,0,0,0-1.74,2.57,2.13,2.13,0,0,0,2.63,1.61h0a2.16,2.16,0,0,0,1.74-2.57A2.13,2.13,0,0,0,927.63,167.08Z" transform="translate(-829.96 -128.98)"/><path class="0e37fa10-def7-4a02-8f8f-fb426fad193d" d="M927.14,163.23l-2.81,3.59-0.42-1.24L926,163l-3.21-.79-0.41-1.2,4.39,1.15,2.38-.8,0.36,1.06Z" transform="translate(-829.96 -128.98)"/></svg>