<svg id="96543cfd-98b3-48c4-9b0d-41c998b985d3" data-name="Layer 1" xmlns="http://www.w3.org/2000/svg" width="1.47in" height="1.47in" viewBox="0 0 105.96 105.88"><defs><style>.\33 b02e07c-fd6d-47b7-8a10-2442d94faeb1{fill:#f4c644;}.\34 153a1a0-b49c-4455-a90d-0016f24c64a5,.a77b6026-5257-45ef-bc9f-f28d0478343c{fill:#c49a6c;}.a77b6026-5257-45ef-bc9f-f28d0478343c{stroke:#c49a6c;stroke-miterlimit:10;stroke-width:0.25px;}</style></defs><title>wheat icon</title><path class="3b02e07c-fd6d-47b7-8a10-2442d94faeb1" d="M397.71,206.94c-6.27,2.44-9.41,4.29-10.89,5.79,0-2.49-.11-5.21-0.17-8l0.3,0.45c1.38,2.06,5.23,2.46,7.49,0s12.05-19.5,12.05-19.5-1.82,2-10.12,7.38c-5.95,3.64-8.7,6.06-9.82,7.82-0.07-2.87-.14-5.78-0.21-8.6a5.36,5.36,0,0,0,1.11,1.32c1.54,1.53,4.9,1.2,6.41-1.29s7-18.78,7-18.78-1.21,2-7.39,8.06c-4.69,4.35-6.6,6.95-7.15,8.64-0.11-3.9-.23-7.56-0.35-10.61a7,7,0,0,0,1.07.91c1.73,1.31,5,.54,6.18-2.13s4.4-19.54,4.4-19.54-0.93,2.16-6.25,9c-3.22,3.91-4.86,6.49-5.56,8.27a40.14,40.14,0,0,0-.4-4.85,5,5,0,0,0,3.67-5.3c-0.27-3.24-6.06-21.44-6.06-21.44s0.23,2.61-1.35,12.09c-2.81,14.43.11,14.34,2.5,14.71a3.27,3.27,0,0,0,1.09,0,72.28,72.28,0,0,0-.39,9c-0.5-1.8-2-4.56-5.37-9-5-7-5.87-9.23-5.87-9.23s2.52,17,3.57,19.7,4.31,3.63,6.09,2.39a4.1,4.1,0,0,0,1.54-1.48c-0.08,7.22-.13,17-0.42,26.78-0.83-2.05-3.47-5.09-9.86-10.09-8.35-6.87-10.07-9.26-10.07-9.26s8.52,19.73,10.67,22.67,6.38,3,8.14.92a9.29,9.29,0,0,0,1-1.34c-0.11,3.19-.25,6.36-0.42,9.43a75.88,75.88,0,0,1-1.11,9.26c1.07,0.07,2.39.14,3.56,0.11a54.67,54.67,0,0,0,.65-9.15c0-1.08,0-2.36-.07-3.8a5.16,5.16,0,0,0,6.73.38c2.66-2,15.32-17.05,15.32-17.05S406.84,203.11,397.71,206.94Zm-14.19-9.68c1.4-1.65,3.43-3.33-7-11.45-6.67-5.49-8-7.4-8-7.4s6.81,15.77,8.53,18.12S382.12,198.91,383.52,197.26Z" transform="translate(-329.83 -127.99)"/><path class="4153a1a0-b49c-4455-a90d-0016f24c64a5" d="M383.81,233.88a52.41,52.41,0,0,1-42.6-21.93L340,210.21l84.83-60.48,1.24,1.73A52,52,0,0,1,383.81,233.88Zm-37.86-22.7a47.83,47.83,0,0,0,77.83-55.49Z" transform="translate(-329.83 -127.99)"/><path class="a77b6026-5257-45ef-bc9f-f28d0478343c" d="M338,203.06l-1.28-3-0.56.24,1.28,3-2,.84L334,200.83l-0.57.25,1.69,3.92,5.46-2.36-0.27-.62Zm-2.12-4h0a3,3,0,1,0-1.72-5.82h0A3,3,0,1,0,335.83,199.07Zm-3.21-2.22a2.36,2.36,0,0,1,1.7-2.94h0a2.34,2.34,0,0,1,3,1.55,2.37,2.37,0,0,1-1.7,2.94h0A2.34,2.34,0,0,1,332.62,196.85Zm4.1-6.12-2.29.35-0.25-1.66v0l2-2.05-0.12-.82L334,188.7a1.74,1.74,0,0,0-2-1.33h0a1.64,1.64,0,0,0-1.09.63,2.33,2.33,0,0,0-.33,1.76l0.38,2.53,5.89-.9Zm-5.27.8-0.28-1.82a1.27,1.27,0,0,1,.93-1.68h0a1.32,1.32,0,0,1,1.44,1.33l0.27,1.81Zm4.54-6.48-4.81.09,3.14-2.22v0l-3.22-2.11,4.82-.09V180l-5.95.11v0.68l3.28,2.11L330,185.14v0.68l5.95-.11v-0.65Zm0.38-8.68a2.35,2.35,0,0,0-2.33-2.77l-3.39-.4-0.08.67,3.44,0.4a1.71,1.71,0,0,1,1.74,2,1.75,1.75,0,0,1-2.2,1.57l-3.39-.4-0.08.67,3.44,0.4A2.33,2.33,0,0,0,336.38,176.38Zm1.36-7.59-0.6-.14-0.77,3.26-5.18-1.22-0.16.65,5.79,1.36Zm0.29-1-1.24-1.2,1.11-3,1.72-.12,0.25-.68-6.56.5-0.22.59,4.71,4.6Zm-4.1-4,3.32-.23-0.93,2.55Zm3.09-7.27-0.56-.27-2.05,4.2,0.56,0.27,0.88-1.79,4.79,2.34,0.3-.61-4.79-2.34Zm5.07,0.68-1.76-1.11,1.74-2.74-0.52-.33-1.74,2.75-1.72-1.09,1.94-3.07-0.52-.33-2.3,3.63,5,3.18,2.32-3.67-0.52-.33Zm4-9.51h0a3,3,0,0,0-4.29.58l-1.31,1.6,4.61,3.76,1.31-1.6A3,3,0,0,0,346.15,147.72ZM346,151.66l-0.88,1.08-3.65-3,0.88-1.08a2.32,2.32,0,0,1,3.38-.42h0A2.3,2.3,0,0,1,346,151.66Zm6.78-13.78,1.8,4.92-4.4-2.84-0.43.35,1.87,4.89-4.44-2.78-0.57.46L352,146.2l0.44-.35-1.77-4.79,4.31,2.72,0.44-.36-2.12-6Zm2-1.18,3.19,5,0.57-.36-3.19-5Zm6.2-2.8-0.29-.55-4.12,2.2,0.29,0.55,1.76-.94,2.5,4.7,0.6-.32-2.5-4.7Zm5-2.71,1,2.46-3.2,1.25-1-2.46-0.62.24,2.17,5.54,0.63-.24-1-2.49,3.2-1.25,1,2.49,0.63-.24-2.17-5.54Zm9,0.63a3,3,0,1,0-5.9,1.44v0a3,3,0,1,0,5.89-1.43S374.87,131.81,374.86,131.81Zm-2.36,3.11a2.36,2.36,0,0,1-2.85-1.84v0a2.34,2.34,0,0,1,1.69-2.92,2.36,2.36,0,0,1,2.85,1.84v0A2.34,2.34,0,0,1,372.49,134.92Zm8.31-6.75-0.67.07,0.35,3.44a1.71,1.71,0,0,1-1.58,2.14,1.75,1.75,0,0,1-2-1.81l-0.35-3.4-0.67.07,0.35,3.44a2.48,2.48,0,1,0,4.92-.55Zm1.49,0.57,2,0-0.09,5.33h0.68l0.09-5.33,2,0v-0.62l-4.67-.08v0.62Zm8.7,2.83a2.33,2.33,0,0,1,2.66-2,2.53,2.53,0,0,1,1.66,1l0.52-.42a3.14,3.14,0,0,0-2-1.17,3,3,0,0,0-3.48,2.49v0a2.92,2.92,0,0,0,2.43,3.55,3.61,3.61,0,0,0,2.51-.47l0.42-2.33-2.42-.44-0.11.59,1.78,0.32-0.26,1.46a2.8,2.8,0,0,1-1.8.28,2.3,2.3,0,0,1-1.87-2.85v0Zm7.6-1.38-0.64-.2-1.75,5.69,3.84,1.18,0.18-.59-3.2-1Zm6.95,6.29a1.71,1.71,0,0,1-2.42,1.09,1.75,1.75,0,0,1-.87-2.56l1.36-3.13L403,131.6l-1.37,3.17a2.48,2.48,0,1,0,4.56,1.92l1.36-3.12-0.62-.27Zm7,0.65,0.31-.54-4-2.35-0.31.54,1.73,1-2.68,4.61,0.59,0.34,2.68-4.61Zm0.21,3.36,2.61,1.93,0.36-.49L413.15,140l1.21-1.63,2.92,2.15,0.36-.49-3.45-2.55-3.54,4.78,3.49,2.58,0.36-.49-3-2.18Zm9.38,3.67-3.28,3.46,0.56-6-0.46-.43-4.09,4.32,0.47,0.45,3.35-3.54-0.56,6.18,0.39,0.37,4.09-4.32Z" transform="translate(-329.83 -127.99)"/></svg>