<svg id="a4b73ec2-e660-4440-8d8f-0124f9c11ad9" data-name="Layer 1" xmlns="http://www.w3.org/2000/svg" width="1.45in" height="1.48in" viewBox="0 0 104.11 106.59"><defs><style>.\31 01e9bb9-6285-4031-98b9-79ce50dee287{fill:#8da23b;}</style></defs><title>vegan friendly icon</title><path class="101e9bb9-6285-4031-98b9-79ce50dee287" d="M247.88,175.68c-23.66-2-20.49-21.93-20.49-21.93,0.75,1.92-1.2,6,9.43,6.89s13.45,6.26,12.19,14l-0.11-.34A13.6,13.6,0,0,0,238,165.24,18,18,0,0,1,247.88,175.68Z" transform="translate(-206.23 -127.7)"/><path class="101e9bb9-6285-4031-98b9-79ce50dee287" d="M242.83,172.66l2.3,0,2.52,2.48L260,203.21l15.87-38.29h5.4l-19.11,44.76h-4.45Z" transform="translate(-206.23 -127.7)"/><path class="101e9bb9-6285-4031-98b9-79ce50dee287" d="M223.67,204.95l1,1-3.86,9.26,9.28-3.83,0.92,0.93L220,216.64l-0.76-.76Z" transform="translate(-206.23 -127.7)"/><path class="101e9bb9-6285-4031-98b9-79ce50dee287" d="M232.39,213.32l6.38,4.46-0.63.91-5.38-3.76-2.11,3,4.82,3.37-0.63.91L230,218.84l-2.16,3.09,5.45,3.81-0.63.91-6.44-4.5Z" transform="translate(-206.23 -127.7)"/><path class="101e9bb9-6285-4031-98b9-79ce50dee287" d="M238,223.64v0a5.4,5.4,0,0,1,7.08-3.16,5.66,5.66,0,0,1,3.19,2.82l-1.07.56a4.57,4.57,0,0,0-2.58-2.36,4.2,4.2,0,0,0-5.44,2.57v0a4.16,4.16,0,0,0,2.29,5.74,5.06,5.06,0,0,0,3.28.16l1-2.48-3-1.22,0.41-1,4.12,1.65-1.6,4a6.52,6.52,0,0,1-4.62-.08A5.28,5.28,0,0,1,238,223.64Z" transform="translate(-206.23 -127.7)"/><path class="101e9bb9-6285-4031-98b9-79ce50dee287" d="M255,223l1.13,0.1,4,11.22-1.3-.11-1-2.94-5.84-.5-1.52,2.73-1.24-.11Zm2.4,7.14-2-5.68-2.92,5.26Z" transform="translate(-206.23 -127.7)"/><path class="101e9bb9-6285-4031-98b9-79ce50dee287" d="M262.31,223.3l1.11-.23,8.39,7.08-1.74-8.45,1.16-.24L273.4,232l-0.95.19L263.86,225l1.78,8.65-1.16.24Z" transform="translate(-206.23 -127.7)"/><path class="101e9bb9-6285-4031-98b9-79ce50dee287" d="M277.78,218.84l6.65-4,0.57,1-5.61,3.33,2,3.31,5-3,0.57,1-5,3,2.4,4-1,.62Z" transform="translate(-206.23 -127.7)"/><path class="101e9bb9-6285-4031-98b9-79ce50dee287" d="M285.69,213.88l3.21-3.34a4.26,4.26,0,0,1,2.9-1.46,3,3,0,0,1,2.1.87l0,0a3.15,3.15,0,0,1,.23,4.28l5.46,0.67-1,1.07-5.18-.65,0,0-2.11,2.2,3,2.9-0.84.88Zm7.09,0.55c1.12-1.16,1.32-2.57.32-3.53l0,0c-1-.92-2.23-0.74-3.44.51l-2.3,2.4,3.15,3Z" transform="translate(-206.23 -127.7)"/><path class="101e9bb9-6285-4031-98b9-79ce50dee287" d="M292.69,205.73l0.65-1,9.09,5.77-0.65,1Z" transform="translate(-206.23 -127.7)"/><path class="101e9bb9-6285-4031-98b9-79ce50dee287" d="M294.83,202.36l2.92-7.22,1,0.41-2.46,6.09,3.41,1.38,2.21-5.45,1,0.41-2.21,5.45,3.5,1.41,2.5-6.16,1,0.42-3,7.29Z" transform="translate(-206.23 -127.7)"/><path class="101e9bb9-6285-4031-98b9-79ce50dee287" d="M298.28,193.28l0.16-1.12,9.51-5.48-8.54-1.23,0.17-1.17,10.66,1.54-0.14,1-9.73,5.62,8.74,1.26-0.17,1.17Z" transform="translate(-206.23 -127.7)"/><path class="101e9bb9-6285-4031-98b9-79ce50dee287" d="M299.62,181.81l-0.33-3.72c-0.3-3.37,1.8-5.9,4.82-6.17h0a5.38,5.38,0,0,1,5.87,5.21l0.33,3.72Zm9.27-4.58a4.17,4.17,0,0,0-4.61-4.06h0a4.19,4.19,0,0,0-3.84,4.82l0.22,2.51,8.48-.76Z" transform="translate(-206.23 -127.7)"/><path class="101e9bb9-6285-4031-98b9-79ce50dee287" d="M298.21,170.35l-0.35-1.16,9.24-2.77-1.74-5.81,1.08-.32,2.09,7Z" transform="translate(-206.23 -127.7)"/><path class="101e9bb9-6285-4031-98b9-79ce50dee287" d="M300.51,157.54l-3.88,6.87L296,163.09l3.24-5.62-6.44-.93-0.62-1.27,7.79,1.17,3.84-1.88,0.54,1.1Z" transform="translate(-206.23 -127.7)"/><path class="101e9bb9-6285-4031-98b9-79ce50dee287" d="M216.92,203.56a47.68,47.68,0,0,1,77.41-55l3.46-2.46A51.9,51.9,0,0,0,213.45,206Z" transform="translate(-206.23 -127.7)"/></svg>