<svg id="e7acb821-4945-415c-aab8-d316989cf386" data-name="Layer 1" xmlns="http://www.w3.org/2000/svg" width="0.88in" height="1.45in" viewBox="0 0 63.01 104.24"><defs><style>.\37 953405b-01e3-475c-b2d5-b075ec0313c2,.abe1ce24-abad-4d56-8cc7-88c579120ddd,.b4f8b0dc-60bf-4069-a09b-c2594dc8ab93{fill:#231f20;}.\36 65778d9-9aed-4d32-89a2-1d441da86da7{fill:#ee72a9;}.\39 5126efd-7496-4787-8fbe-28167fcd2695{fill:#fff;}.abe1ce24-abad-4d56-8cc7-88c579120ddd,.b4f8b0dc-60bf-4069-a09b-c2594dc8ab93{stroke:#231f20;}.b4f8b0dc-60bf-4069-a09b-c2594dc8ab93{stroke-linecap:round;stroke-width:0.04px;}.abe1ce24-abad-4d56-8cc7-88c579120ddd{stroke-width:0.03px;}</style></defs><title>icons</title><path class="7953405b-01e3-475c-b2d5-b075ec0313c2" d="M110.45,202a1.42,1.42,0,0,1,.37,1,0.87,0.87,0,0,1-.55.93,0.44,0.44,0,0,1-.35-0.17,3.41,3.41,0,0,0-2.5-1.32c-1.75,0-3.45,1.37-3.45,4a4.1,4.1,0,0,0,4,4.27,3,3,0,0,0,2.77-1.5,0.4,0.4,0,0,1,.45.35,4.55,4.55,0,0,1-4.17,2.55,4.83,4.83,0,0,1-3.42-1.27,5,5,0,0,1-1.45-3.7c0-2.69,1.9-5.57,6-5.57A6.22,6.22,0,0,1,110.45,202Z" transform="translate(-102.19 -128.69)"/><path class="7953405b-01e3-475c-b2d5-b075ec0313c2" d="M113.72,204.62c0-1,0-1.11-.68-1.55l-0.22-.15a0.34,0.34,0,0,1,0-.45,20.1,20.1,0,0,0,2.52-1.22,0.19,0.19,0,0,1,.2.17v1.45a0.24,0.24,0,0,0,.07.22,5.06,5.06,0,0,1,2.75-1.5,1,1,0,0,1,1.12,1,1.11,1.11,0,0,1-1.07,1.15,1,1,0,0,1-.55-0.17,2,2,0,0,0-1.09-.41,1.11,1.11,0,0,0-.9.5,3.79,3.79,0,0,0-.32,1.92V209c0,1.79,0,2.1,1,2.17l0.89,0.08a0.43,0.43,0,0,1,0,.62c-1.17,0-1.9-.07-2.77-0.07s-1.65,0-2.3.07a0.43,0.43,0,0,1,0-.62l0.47-.08c0.92-.15,1-0.38,1-2.17v-4.37Z" transform="translate(-102.19 -128.69)"/><path class="7953405b-01e3-475c-b2d5-b075ec0313c2" d="M123.73,208.11c0,1.72.43,2.87,2.32,2.87a3.28,3.28,0,0,0,2-.75,1.76,1.76,0,0,0,.5-1.45v-4.09c0-1.62-.18-1.68-0.93-2l-0.32-.13a0.34,0.34,0,0,1,0-.55,9.83,9.83,0,0,0,2.92-.45,0.25,0.25,0,0,1,.23.17c-0.05.47-.08,1.25-0.08,2.17v4.19c0,2,.08,2.72.77,2.72a4.61,4.61,0,0,0,1-.13,0.57,0.57,0,0,1,0,.72,12.92,12.92,0,0,0-3.27.92,0.34,0.34,0,0,1-.3-0.17v-1c0-.22-0.08-0.35-0.23-0.35a6.56,6.56,0,0,1-3.45,1.3c-2.19,0-3-1.1-3-3.12v-4.17c0-1.57,0-1.8-.75-2.12l-0.3-.13a0.37,0.37,0,0,1,0-.55,8.85,8.85,0,0,0,2.67-.45,0.26,0.26,0,0,1,.25.17,18.57,18.57,0,0,0-.08,2.17v4.17Z" transform="translate(-102.19 -128.69)"/><path class="7953405b-01e3-475c-b2d5-b075ec0313c2" d="M135,205.39c-0.65,0-.67,0-0.67.67,0,2.52,1.47,4.67,4.14,4.67a2.71,2.71,0,0,0,2.3-1.22,0.33,0.33,0,0,1,.45.3,4.37,4.37,0,0,1-3.92,2.32,4.47,4.47,0,0,1-3.62-1.65,5.3,5.3,0,0,1-1-3.24c0-3.07,2-5.64,5-5.64a3.27,3.27,0,0,1,3.54,3,1.53,1.53,0,0,1-.1.65c-0.08.15-.42,0.18-1.47,0.18H135Zm1.55-.75c1.85,0,2.4-.1,2.6-0.25a0.51,0.51,0,0,0,.15-0.47,1.64,1.64,0,0,0-1.92-1.57,2.93,2.93,0,0,0-2.77,2.17c0,0.05,0,.13.17,0.13h1.77Z" transform="translate(-102.19 -128.69)"/><path class="7953405b-01e3-475c-b2d5-b075ec0313c2" d="M145.22,209c0,1.79,0,2,.95,2.17l0.6,0.08a0.43,0.43,0,0,1-.05.62c-0.82,0-1.55-.07-2.42-0.07s-1.65,0-2.4.07a0.43,0.43,0,0,1-.05-0.62l0.58-.08c0.92-.12.95-0.38,0.95-2.17V197.7c0-1.47,0-1.62-.77-2.07l-0.25-.15a0.37,0.37,0,0,1,0-.5,17.9,17.9,0,0,0,2.7-1,0.27,0.27,0,0,1,.25.15c0,0.75-.07,2-0.07,3.1V209Z" transform="translate(-102.19 -128.69)"/><path class="7953405b-01e3-475c-b2d5-b075ec0313c2" d="M150.58,203c-0.42,0-.45.08-0.45,0.6v4.67c0,1.44.17,2.77,1.82,2.77a1.87,1.87,0,0,0,.67-0.13c0.22-.07.55-0.35,0.62-0.35a0.33,0.33,0,0,1,.25.42,3.48,3.48,0,0,1-2.62,1.15c-2.14,0-2.6-1.2-2.6-2.7v-5.71c0-.67,0-0.72-0.52-0.72h-0.7a0.41,0.41,0,0,1-.08-0.52,5.09,5.09,0,0,0,1.6-.77,6.16,6.16,0,0,0,1-1.47,0.46,0.46,0,0,1,.52.13v1.12c0,0.45,0,.47.45,0.47h2.77a0.8,0.8,0,0,1,0,1h-2.82Z" transform="translate(-102.19 -128.69)"/><path class="7953405b-01e3-475c-b2d5-b075ec0313c2" d="M154.35,216.92a0.93,0.93,0,0,1,1-1h0.47a0.91,0.91,0,0,0,.82-0.45,15.82,15.82,0,0,0,1.45-2.77,3.63,3.63,0,0,0,.25-1.07,4.69,4.69,0,0,0-.43-1.72L156,204.56c-0.43-1.17-.6-1.77-1.47-1.95l-0.63-.13a0.44,0.44,0,0,1,.08-0.62c0.8,0,1.55.07,2.37,0.07s1.37,0,2.17-.07a0.42,0.42,0,0,1,.05.62l-0.63.13c-0.35.08-.55,0.15-0.55,0.32a18.57,18.57,0,0,0,.72,2.35l0.8,2.29a13.39,13.39,0,0,0,.72,1.77,12.29,12.29,0,0,0,.92-1.85l0.85-2a11.73,11.73,0,0,0,.87-2.5c0-.17-0.15-0.35-0.6-0.42l-0.77-.13a0.42,0.42,0,0,1,.05-0.62c0.8,0,1.54.07,2.2,0.07s1.2,0,1.9-.07a0.41,0.41,0,0,1,0,.62l-0.42.08c-0.83.15-1.27,0.87-2.12,2.64l-1.4,2.87c-0.82,1.67-2.87,6-4.09,8.73a1.66,1.66,0,0,1-1.6,1.17A1,1,0,0,1,154.35,216.92Z" transform="translate(-102.19 -128.69)"/><path class="665778d9-9aed-4d32-89a2-1d441da86da7" d="M119.89,223.94c-0.62,0-.65,0-0.65.7v5c0,1.8.1,2,.93,2.07l0.83,0.08a0.62,0.62,0,0,1,0,.82c-1.18,0-2.22-.07-3.39-0.07s-2.17,0-2.95.07a0.62,0.62,0,0,1,0-.82l0.4,0c0.9-.1,1-0.3,1-2.1v-5c0-.68,0-0.7-0.62-0.7h-0.93a0.61,0.61,0,0,1-.08-0.67l1.08-.55a0.75,0.75,0,0,0,.55-0.65,11.92,11.92,0,0,1,.7-4.11,5,5,0,0,1,4.9-3.23c1.45,0,2.92.75,2.92,2.05a1.33,1.33,0,0,1-1.44,1.35,1.26,1.26,0,0,1-1-.45c-1.07-1.37-1.47-1.65-1.77-1.65-0.65,0-1.05.73-1.05,3v2.82c0,0.68,0,.7.65,0.7h2.37a0.59,0.59,0,0,1,.18.5,1.06,1.06,0,0,1-.33.85h-2.22Z" transform="translate(-102.19 -128.69)"/><path class="665778d9-9aed-4d32-89a2-1d441da86da7" d="M123.75,226c0-1,0-1.28-.47-1.59l-0.35-.23a0.59,0.59,0,0,1,0-.74,17.07,17.07,0,0,0,3.64-1.5,0.51,0.51,0,0,1,.45.23c-0.05.5-.1,0.85-0.1,1.08a0.26,0.26,0,0,0,.25.3c0.67-.43,1.4-1.26,2.44-1.26a1.4,1.4,0,0,1,1.38,1.48,1.51,1.51,0,0,1-1.6,1.62,1.41,1.41,0,0,1-1-.44,1.48,1.48,0,0,0-1-.5c-0.35,0-.47.55-0.47,1.5v3.85c0,1.75.1,1.95,0.92,2l0.8,0.08a0.68,0.68,0,0,1,0,.87c-1.2-.05-2.19-0.08-3.37-0.08-1,0-2.12,0-2.95.08a0.69,0.69,0,0,1,0-.87l0.48,0c0.82-.1.92-0.3,0.92-2V226Z" transform="translate(-102.19 -128.69)"/><path class="665778d9-9aed-4d32-89a2-1d441da86da7" d="M134.92,226.66c-0.58,0-.62.05-0.62,0.45a3.47,3.47,0,0,0,3.52,3.7,2.47,2.47,0,0,0,2.32-1.3,0.57,0.57,0,0,1,.65.58,4.79,4.79,0,0,1-4.37,2.84,4.9,4.9,0,0,1-5.19-5.09,5.37,5.37,0,0,1,5.39-5.6c2.6,0,4,1.68,4,3.6a0.72,0.72,0,0,1-.9.82h-4.79Zm1.65-1.1a1.94,1.94,0,0,0,1-.23,0.7,0.7,0,0,0,.18-0.57,1.25,1.25,0,0,0-1.33-1.37,2,2,0,0,0-1.95,1.79c0,0.35.35,0.38,1.15,0.38h0.92Z" transform="translate(-102.19 -128.69)"/><path class="665778d9-9aed-4d32-89a2-1d441da86da7" d="M145.4,226.66c-0.57,0-.62.05-0.62,0.45a3.48,3.48,0,0,0,3.52,3.7,2.46,2.46,0,0,0,2.32-1.3,0.57,0.57,0,0,1,.65.58,4.78,4.78,0,0,1-4.37,2.84,4.9,4.9,0,0,1-5.2-5.09,5.38,5.38,0,0,1,5.39-5.6c2.6,0,4,1.68,4,3.6a0.72,0.72,0,0,1-.9.82H145.4Zm1.65-1.1a2,2,0,0,0,1-.23,0.71,0.71,0,0,0,.18-0.57,1.25,1.25,0,0,0-1.33-1.37,2,2,0,0,0-1.94,1.79c0,0.35.35,0.38,1.14,0.38H147Z" transform="translate(-102.19 -128.69)"/><path class="95126efd-7496-4787-8fbe-28167fcd2695" d="M133,169.41c-1.84.36-4-1.36-9.19,6.18-1.63,2.39-6.73,3.63-1.07,10.53,5.19,6.33,10.63-1.08,10.63-1.08s6.38,7.32,11,.91c5.49-7.69-.1-7.85-1.47-10.2-4-6.94-6-6.25-9.87-6.35" transform="translate(-102.19 -128.69)"/><path class="7953405b-01e3-475c-b2d5-b075ec0313c2" d="M133,169c-3.9.51-5.73,1.59-8.26,4.87-1.46,1.9-4.24,3.77-4.61,6.29-0.39,2.69,1.67,5.73,3.59,7.34a5.41,5.41,0,0,0,6.65.59c0.58-.33,2.55-2.69,3-2.7s2.12,1.91,2.67,2.25c2.08,1.28,4.45,1.83,6.61.38s4.45-5.18,4.06-8c-0.33-2.32-2.47-3-3.84-4.71-1.5-1.82-2.22-4.09-4.36-5.39-1.71-1-3.59-.94-5.52-1a1.71,1.71,0,0,0,0,.76c3,0,5,.18,7.18,2.46,1.32,1.41,2,3.25,3.32,4.64a25.12,25.12,0,0,1,2.13,1.71c2.86,3.8-2.49,10.28-6.88,9.47a8.87,8.87,0,0,1-3.64-1.81,13.8,13.8,0,0,0-1.74-1.59A8.6,8.6,0,0,0,132,186.2a8,8,0,0,1-3.56,2c-4.83,1-9.86-5.9-6.91-9.88a38.31,38.31,0,0,1,6.36-7c1.75-1.34,3.12-1.21,5.15-1.48a1.74,1.74,0,0,0,0-.76h0Z" transform="translate(-102.19 -128.69)"/><path class="b4f8b0dc-60bf-4069-a09b-c2594dc8ab93" d="M131.32,180.82c0.58-.7,2.12.89,2.12,0.89s1.58-1.61,2-1.11c0.69,0.74-1.41,2-1.41,2s0,2.08-.63,2.18-0.72-2.18-.72-2.18S130.74,181.5,131.32,180.82Z" transform="translate(-102.19 -128.69)"/><path class="7953405b-01e3-475c-b2d5-b075ec0313c2" d="M152.29,184c-0.64-1-2.11-1.52-3.2-1.88a20.14,20.14,0,0,0-7.41-.89,1.72,1.72,0,0,0,0,.76,20.64,20.64,0,0,1,6.87.72c1.21,0.35,3,.88,3.72,2a2.92,2.92,0,0,0,0-.73h0Z" transform="translate(-102.19 -128.69)"/><path class="abe1ce24-abad-4d56-8cc7-88c579120ddd" d="M129.91,175.63c0,0.87-.32,1.56-0.71,1.56s-0.71-.7-0.71-1.56,0.32-1.55.71-1.55S129.91,174.77,129.91,175.63Z" transform="translate(-102.19 -128.69)"/><path class="abe1ce24-abad-4d56-8cc7-88c579120ddd" d="M137.66,175.64c0,0.87-.32,1.55-0.71,1.55s-0.71-.68-0.71-1.55,0.32-1.56.71-1.56S137.66,174.79,137.66,175.64Z" transform="translate(-102.19 -128.69)"/><path class="95126efd-7496-4787-8fbe-28167fcd2695" d="M133.32,169.17c-5.5-4.73-19.89-17.84-22.65-21.42-1.92-2.48-5.52-10.84-2.21-14.38,1-1,5.43-6.35,11.5-3.31,8.41,4.19,10.8,10,13.45,17.74" transform="translate(-102.19 -128.69)"/><path class="7953405b-01e3-475c-b2d5-b075ec0313c2" d="M133.32,168.79c-4.67-4-9.23-8.2-13.73-12.43-4-3.79-8.86-7.59-11-12.84-1.75-4.32-1.77-8.9,2.06-11.85a8.71,8.71,0,0,1,9.3-1.23c7.49,3.33,10.91,10.41,13.44,17.72a5.35,5.35,0,0,0,0-.73c-2.54-7.33-7.84-18.93-17.38-18.67-4.64.13-8.9,4.18-9,8.77-0.08,6.31,3.68,11,7.89,15.16,5.91,5.83,12.07,11.44,18.35,16.86a3,3,0,0,0,0-.76h0Z" transform="translate(-102.19 -128.69)"/><path class="95126efd-7496-4787-8fbe-28167fcd2695" d="M133.62,169.16" transform="translate(-102.19 -128.69)"/><path class="7953405b-01e3-475c-b2d5-b075ec0313c2" d="M133.62,169.23a0.35,0.35,0,0,0,0-.16,0.35,0.35,0,0,0,0,.16h0Z" transform="translate(-102.19 -128.69)"/><path class="95126efd-7496-4787-8fbe-28167fcd2695" d="M133.17,169.1c5.5-4.72,19.88-17.83,22.64-21.41,1.92-2.49,5.53-10.84,2.21-14.37-1-1-5.44-6.36-11.5-3.33-8.41,4.2-10.8,11.52-13.45,19.25" transform="translate(-102.19 -128.69)"/><path class="7953405b-01e3-475c-b2d5-b075ec0313c2" d="M133.17,169.48c6.28-5.42,12.44-11,18.34-16.85,4.21-4.16,8-8.85,7.89-15.16-0.05-4.58-4.33-8.64-9-8.77-10-.28-14.82,12.72-17.38,20.18a5.43,5.43,0,0,0,0,.73c2.54-7.39,5.42-15,12.77-18.87a8.67,8.67,0,0,1,9.61.58c4.09,2.94,4.28,7.56,2.42,12.13-2.06,5.09-6.64,8.74-10.54,12.42-4.64,4.38-9.35,8.68-14.17,12.85a3,3,0,0,0,0,.76h0Z" transform="translate(-102.19 -128.69)"/><path class="95126efd-7496-4787-8fbe-28167fcd2695" d="M132.86,169.1" transform="translate(-102.19 -128.69)"/><path class="7953405b-01e3-475c-b2d5-b075ec0313c2" d="M132.86,169.18a0.35,0.35,0,0,0,0-.16,0.35,0.35,0,0,0,0,.16h0Z" transform="translate(-102.19 -128.69)"/><path class="665778d9-9aed-4d32-89a2-1d441da86da7" d="M111.62,135.18c-7.82,5.11,19.45,30,21.77,30s29.28-24.06,20.86-30.94c-10.72-8.77-21.21,22.3-21.21,22.3S124.32,126.13,111.62,135.18Z" transform="translate(-102.19 -128.69)"/><path class="7953405b-01e3-475c-b2d5-b075ec0313c2" d="M115.59,184.85c0.72-1.15,2.51-1.67,3.72-2a20.6,20.6,0,0,1,6.87-.72,1.72,1.72,0,0,0,0-.76,20.19,20.19,0,0,0-7.41.89c-1.08.36-2.56,0.85-3.2,1.88a2.93,2.93,0,0,0,0,.73h0Z" transform="translate(-102.19 -128.69)"/><path class="7953405b-01e3-475c-b2d5-b075ec0313c2" d="M116.39,187.79c0.52-1.24,2.21-2,3.34-2.56a20.47,20.47,0,0,1,6.7-1.78,1.73,1.73,0,0,0,0-.76,20.11,20.11,0,0,0-7.17,2c-1,.52-2.43,1.24-2.9,2.36a4.39,4.39,0,0,0,0,.73h0Z" transform="translate(-102.19 -128.69)"/><path class="7953405b-01e3-475c-b2d5-b075ec0313c2" d="M151,187.09c-0.47-1.13-1.88-1.84-2.9-2.37a20,20,0,0,0-7.16-2,1.73,1.73,0,0,0,0,.76,20.4,20.4,0,0,1,6.7,1.77c1.13,0.53,2.83,1.33,3.34,2.57a4.36,4.36,0,0,0,0-.73h0Z" transform="translate(-102.19 -128.69)"/></svg>